<?xml version="1.0" encoding="utf-8"?>
<!DOCTYPE svg PUBLIC "-//W3C//DTD SVG 20010904//EN" "http://www.w3.org/TR/2001/REC-SVG-20010904/DTD/svg10.dtd">
<svg version="1.0" xmlns="http://www.w3.org/2000/svg" width="251px" height="45px" viewBox="0 0 251 45" preserveAspectRatio="xMidYMid meet">
 <g fill="#ffffff">
  <path d="M141 44.30 c0 -0.40 0.25 -0.90 0.50 -1.05 0.55 -0.35 0.70 -2.90 0.15 -3.45 -0.35 -0.35 -1.65 -3.80 -1.65 -4.40 0 -0.25 0.30 -0.40 0.70 -0.40 0.40 0 1 0.80 1.30 1.80 0.60 1.85 1.60 2.05 1.95 0.40 0.25 -1.55 1.05 -2.20 2.60 -2.20 1.10 0 1.45 0.25 1.45 1 0 0.55 0.20 1 0.40 1 0.25 0 0.85 -0.45 1.35 -1 0.85 -0.95 2.25 -1.35 2.25 -0.65 0 0.20 -0.60 0.95 -1.35 1.75 -1.30 1.35 -1.30 1.40 -0.40 2.40 1.20 1.30 1.85 1.05 2.05 -0.70 0.25 -2.50 1.50 -3.80 3.70 -3.80 1.45 0 2.15 0.30 2.70 1.10 l0.80 1.10 1.15 -1.10 c1.50 -1.40 3.70 -1.40 5.20 0 l1.15 1.05 0 -1.05 c0 -1 0.25 -1.10 2.70 -1.10 2.30 0 2.80 0.20 3.50 1.25 0.45 0.65 0.80 1.80 0.80 2.50 0 1.80 0.70 1.55 1.45 -0.60 0.60 -1.70 1.35 -2.60 2.05 -2.65 0.15 0 0.80 1.25 1.50 2.75 0.70 1.50 1.40 2.75 1.55 2.75 0.15 0 0.55 -0.60 0.90 -1.30 0.40 -0.95 0.45 -1.50 0.05 -1.95 -0.40 -0.50 -0.40 -0.95 0.10 -1.70 0.50 -0.85 1.15 -1.05 3.25 -1.05 1.40 0 2.75 -0.20 2.90 -0.50 0.45 -0.70 3.35 -0.60 4.40 0.20 0.65 0.50 0.85 1.40 0.85 4 l0 3.30 -2.40 0 c-1.30 0 -2.65 -0.25 -3 -0.60 -0.45 -0.45 -0.75 -0.45 -1.20 0 -0.95 0.95 -1.30 0.70 -1.50 -0.75 -0.20 -1.75 -1.25 -1.80 -2.05 -0.15 -0.45 0.85 -1.10 1.30 -2.15 1.40 -1.35 0.15 -1.65 -0.10 -2.40 -1.65 -0.95 -2 -1.40 -1.95 -2.30 0.25 -0.55 1.35 -0.85 1.55 -2.20 1.40 -1.45 -0.15 -1.55 -0.30 -1.70 -2.50 -0.30 -4.40 -2.90 -4.40 -3.20 0 -0.10 1.75 -0.35 2.40 -1 2.50 -0.70 0.15 -0.90 -0.15 -0.90 -1.35 0 -1.55 0 -1.55 -2.75 -1.55 -1.50 0 -2.75 0.20 -2.75 0.40 0 0.85 1.25 1.60 2.60 1.60 0.75 0 1.40 0.25 1.40 0.50 0 1 -3.65 0.55 -4.85 -0.60 l-1.15 -1.10 -0.80 1.10 c-0.55 0.80 -1.25 1.10 -2.75 1.10 -1.85 0 -1.95 0.10 -1.95 1.50 0 1.15 -0.20 1.50 -1 1.50 -0.80 0 -1 -0.35 -1 -1.50 0 -0.90 -0.25 -1.50 -0.65 -1.50 -0.40 0 -1.10 -0.45 -1.60 -1 -1.15 -1.30 -1.75 -1.25 -1.75 0.05 0 0.70 -0.25 0.95 -0.85 0.85 -0.70 -0.15 -0.85 -0.60 -0.75 -1.85 0.05 -0.90 -0.10 -1.95 -0.30 -2.40 -0.50 -0.80 -0.50 -0.80 -2.60 4.85 -0.80 2.15 -2.50 3.40 -2.50 1.80z m16.10 -4.15 c1.20 -1.05 1.15 -2.25 -0.10 -3.40 -0.95 -0.85 -1.05 -0.85 -2 0 -1.20 1.10 -1.25 2.10 -0.15 3.35 1 1.10 1.10 1.10 2.25 0.05z m33.90 -0.10 c0.25 -0.55 0.50 -1.90 0.50 -3 0 -2 -0.05 -2.05 -1.75 -2.05 l-1.75 0 0 2.40 c0 3.30 1.80 4.90 3 2.65z m-26 -2.50 c0 -0.95 -1.55 -1.75 -2.40 -1.25 -1.50 1 -1.25 1.70 0.60 1.70 1 0 1.80 -0.20 1.80 -0.45z m19.75 -0.55 c0 -1.10 -1.45 -0.90 -1.65 0.15 -0.15 0.70 0.05 0.90 0.75 0.75 0.50 -0.10 0.90 -0.50 0.90 -0.90z"/>
  <path d="M203.50 44.25 c-0.85 -1.05 -0.20 -1.60 1 -0.85 1.30 0.80 1.90 0.75 2.80 -0.10 1.05 -1.10 0.85 -1.30 -1.25 -1.30 -1.50 0 -2.20 -0.30 -2.75 -1.10 l-0.80 -1.10 -0.80 1.10 c-0.55 0.75 -1.25 1.10 -2.50 1.10 -0.95 0 -1.70 -0.20 -1.70 -0.50 0 -0.25 0.55 -0.50 1.20 -0.50 1.65 0 2.20 -1 1.05 -1.85 -0.90 -0.65 -0.90 -0.65 0 -1.30 1.15 -0.85 0.60 -1.85 -1.05 -1.85 -0.65 0 -1.20 -0.20 -1.20 -0.50 0 -0.25 0.75 -0.50 1.70 -0.50 1.25 0 1.95 0.35 2.50 1.10 l0.80 1.10 0.80 -1.10 c1.05 -1.55 4.35 -1.55 5.40 0 l0.80 1.10 1.15 -1.10 c1.50 -1.40 3.90 -1.45 5.10 -0.10 l0.90 1 1.10 -1 c1.60 -1.50 4.40 -1.35 5.60 0.30 l0.95 1.30 0.85 -1.30 c1.15 -1.70 4.50 -1.90 5.45 -0.30 0.35 0.55 0.80 1 1 1 0.25 0 0.40 -0.45 0.40 -1 0 -0.80 0.35 -1 1.90 -1 2.30 0 3.10 0.70 3.15 2.75 0.10 1.30 0.15 1.25 0.40 -0.45 0.35 -2.25 1.55 -3.10 1.55 -1.10 0 1.40 0.25 1.55 2.75 1.95 1.30 0.25 1.60 0.05 2.25 -1.30 0.65 -1.40 1.05 -1.60 2.85 -1.75 1.95 -0.15 2.20 0 3.10 1.45 0.55 0.90 0.90 1.80 0.75 2.05 -0.15 0.20 -1.35 0.40 -2.65 0.40 -1.30 0 -2.55 0.15 -2.70 0.35 -0.50 0.45 1.25 1.60 2.55 1.65 0.60 0 1.10 0.25 1.10 0.50 0 0.30 -0.90 0.50 -2 0.50 -1.45 0 -2.15 -0.25 -2.60 -1 -0.35 -0.55 -0.80 -1 -0.95 -1 -0.20 0 -0.45 0.45 -0.60 1 -0.20 0.80 -0.70 1 -2.45 1 -1.20 0 -2.45 -0.25 -2.80 -0.60 -0.45 -0.45 -0.60 -0.45 -0.60 0 0 0.40 -0.90 0.60 -2.50 0.60 -2.15 0 -2.50 -0.15 -2.50 -1 0 -0.55 -0.15 -1 -0.40 -1 -0.20 0 -0.65 0.45 -1 1 -0.95 1.55 -4.25 1.40 -5.45 -0.30 l-0.95 -1.30 -0.85 1.30 c-0.70 1.05 -1.25 1.30 -2.85 1.30 -1.90 0 -2 0.10 -2 1.50 0 1 -0.25 1.50 -0.75 1.50 -0.55 0 -0.75 -0.60 -0.75 -2.50 0 -2.70 -0.40 -3.10 -1.40 -1.50 -0.65 1.05 -3.75 1.45 -4.35 0.50 -0.55 -0.90 -1.15 -0.50 -2.10 1.40 -0.80 1.65 -1.15 1.85 -2.95 2 -1.40 0.10 -2.25 -0.10 -2.70 -0.65z m3.60 -4.10 c1.15 -1.05 1.15 -2.25 -0.05 -3.35 -0.80 -0.75 -1.10 -0.75 -2 -0.20 -1.30 0.80 -1.35 2.80 -0.15 3.70 1.10 0.85 1.10 0.85 2.20 -0.15z m7.30 0.25 c1.30 -1.30 0.40 -4.40 -1.25 -4.40 -0.35 0 -1 0.55 -1.45 1.25 -0.75 1.15 -0.75 1.35 0 2.50 0.90 1.35 1.75 1.60 2.70 0.65z m7.20 -0.25 c1.20 -1.05 1.15 -2.25 -0.10 -3.40 -0.95 -0.85 -1.05 -0.85 -2 0 -1.20 1.10 -1.25 2.10 -0.15 3.35 1 1.10 1.10 1.10 2.25 0.05z m7.50 0 c1.20 -1.05 1.15 -2.25 -0.10 -3.40 -0.95 -0.85 -1.05 -0.85 -2 0 -1.20 1.10 -1.25 2.10 -0.15 3.35 1 1.10 1.10 1.10 2.25 0.05z m6.65 -0.15 c0 -0.90 -1.65 -1.30 -2.35 -0.60 -0.30 0.30 -0.35 0.75 -0.15 1.10 0.50 0.80 2.50 0.40 2.50 -0.50z m5.65 0.15 c0.25 -0.85 -1.30 -1.45 -2 -0.75 -0.30 0.30 -0.35 0.75 -0.15 1.10 0.45 0.70 1.85 0.45 2.15 -0.35z m-6.40 -3.15 c0 -1.05 -1.20 -1.40 -1.75 -0.50 -0.40 0.70 0.15 1.50 1.05 1.50 0.40 0 0.70 -0.45 0.70 -1z m13.65 0.65 c0.20 -0.15 -0.10 -0.60 -0.65 -1 -0.85 -0.60 -1.15 -0.60 -2 0 -1.20 0.85 -0.80 1.35 1 1.35 0.75 0 1.50 -0.15 1.65 -0.35z"/>
  <path d="M31.65 41.20 c-2.10 -0.90 -2.35 -1.40 -1.45 -3.30 0.45 -1.10 0.70 -3.15 0.65 -6.05 -0.05 -4.90 0.30 -4.50 -4.35 -5.10 -2.10 -0.25 -2.35 -0.15 -3.10 1.10 -0.45 0.80 -1.90 2.45 -3.25 3.70 -2.35 2.25 -4 2.95 -11.30 5 -2.30 0.65 -4.85 3 -4.85 4.40 0 0.30 -0.50 0.55 -1.05 0.55 -0.90 0 -1 -0.20 -0.75 -1.50 0.15 -0.80 0.45 -2.25 0.60 -3.10 0.40 -1.95 1.05 -2.45 2.55 -2.05 0.80 0.15 2.20 -0.35 4.55 -1.80 1.90 -1.15 3.90 -2.05 4.50 -2.05 0.90 0 1.45 -0.75 2.85 -3.80 0.95 -2.10 1.75 -4.35 1.75 -4.95 0 -0.60 0.35 -1.95 0.75 -2.95 0.65 -1.50 0.65 -2.25 0.20 -3.95 -1 -3.75 -1.20 -3.95 -3.10 -3.05 -1.30 0.60 -1.80 1.30 -2.30 3 -0.35 1.20 -0.50 2.95 -0.35 3.90 0.25 1.20 0.10 1.85 -0.50 2.35 -1.10 0.90 -2.50 -0.05 -2.35 -1.60 0.50 -6.75 0.80 -8.10 1.95 -9.20 1.50 -1.40 6 -3.75 7.20 -3.75 1.90 0 2.50 -0.60 2.50 -2.45 0.05 -2.55 1 -3.65 3.05 -3.45 2.10 0.20 3.05 1.80 2.40 4.10 -0.25 0.85 -0.70 1.65 -0.95 1.70 -0.70 0.25 -0.60 0.95 0.25 2 0.45 0.45 1.30 1.50 1.95 2.30 l1.10 1.45 1.10 -1.15 c0.60 -0.65 1.10 -1.70 1.10 -2.30 0 -0.60 0.35 -1.35 0.80 -1.70 0.60 -0.55 0.90 -0.55 1.55 0.10 0.70 0.75 0.65 1.05 -0.55 3.55 -0.75 1.50 -1.90 3.25 -2.60 3.90 -1.20 1.10 -1.25 1.15 -2.70 0.25 -1.80 -1.05 -2.30 -0.80 -2.65 1.30 -0.15 0.90 -0.35 2.05 -0.45 2.60 -0.10 0.50 0.20 1.05 0.60 1.25 9.85 4.80 9.40 4.05 7.35 11.50 l-1.60 5.70 1.90 1.60 c1 0.90 1.85 1.85 1.85 2.20 0 0.75 -2.90 0.65 -4.85 -0.25z"/>
  <path d="M59.75 41.20 c-1.30 -1 -1.40 -6.10 -0.15 -7.35 0.90 -0.95 5.40 -1.20 5.40 -0.35 0 0.30 -0.80 0.50 -1.75 0.50 -0.95 0 -1.75 0.25 -1.75 0.50 0 0.30 0.50 0.50 1.10 0.50 0.60 0 1.60 0.50 2.25 1.10 l1.15 1.05 1.15 -1.05 c1.40 -1.30 3.40 -1.40 5.10 -0.30 1.15 0.75 1.25 0.75 1.55 0 0.20 -0.55 0.95 -0.80 2.25 -0.80 2.20 0 2.65 0.85 0.60 1.10 -1.35 0.15 -1.40 0.30 -1.55 3.05 -0.15 2.45 -0.30 2.90 -1 2.75 -0.55 -0.10 -0.85 -0.65 -0.85 -1.40 0 -1.15 -0.20 -1.25 -2.60 -1.40 -1.45 -0.10 -2.65 0.05 -2.65 0.25 0 0.90 1.25 1.65 2.60 1.65 0.75 0 1.40 0.25 1.40 0.50 0 1 -3.65 0.55 -4.85 -0.60 l-1.15 -1.05 -1.15 1.05 c-1.35 1.25 -3.65 1.40 -5.10 0.30z m3.65 -0.80 c1.30 -1.30 0.40 -4.40 -1.25 -4.40 -0.35 0 -1 0.55 -1.45 1.25 -0.75 1.15 -0.75 1.35 0 2.50 0.90 1.35 1.75 1.60 2.70 0.65z m8.10 -2.85 c0 -0.95 -1.55 -1.75 -2.40 -1.25 -1.50 1 -1.25 1.70 0.60 1.70 1 0 1.80 -0.20 1.80 -0.45z"/>
  <path d="M79.30 40.90 c-1.85 -2.60 -0.40 -5.90 2.50 -5.90 1 0 2.10 0.35 2.50 0.75 0.65 0.65 0.90 0.60 1.90 -0.50 1.40 -1.50 3.90 -1.65 5.35 -0.30 0.85 0.75 1 1.45 0.85 3.85 l-0.15 2.95 -2.60 0.15 c-1.60 0.10 -2.65 -0.05 -2.65 -0.35 0 -0.30 -0.35 -0.55 -0.75 -0.55 -0.40 0 -0.75 0.25 -0.75 0.50 0 0.30 -1.20 0.50 -2.70 0.50 -2.25 0 -2.90 -0.20 -3.50 -1.10z m3.80 -0.75 c1.20 -1.05 1.15 -2.25 -0.10 -3.40 -0.95 -0.85 -1.05 -0.85 -2 0 -1.20 1.10 -1.25 2.10 -0.15 3.35 1 1.10 1.10 1.10 2.25 0.05z m7 0 c0.60 -0.55 0.90 -1.50 0.90 -3 l0 -2.15 -2 0 -2 0 0 2.10 c0 1.20 0.35 2.45 0.85 3 1 1.10 1.10 1.10 2.25 0.05z"/>
  <path d="M96.05 41.65 c0.05 -1 2.75 -5.85 3.35 -6.05 0.60 -0.20 3.10 4.45 3.10 5.80 0 1.30 -1.35 0.50 -2 -1.15 -0.40 -0.95 -0.85 -1.75 -1.05 -1.75 -0.20 0 -0.70 0.80 -1.15 1.75 -0.45 0.95 -1.15 1.75 -1.55 1.75 -0.40 0 -0.75 -0.15 -0.70 -0.35z"/>
  <path d="M103.80 40.90 c-0.45 -0.60 -0.80 -1.70 -0.80 -2.40 0 -2.20 1.30 -3.50 3.45 -3.50 1.10 0 2.20 0.30 2.55 0.75 0.60 0.70 0.75 0.70 1.50 0 0.55 -0.50 1.80 -0.75 3.65 -0.75 2.50 0 2.85 0.10 2.85 1 0 0.55 0.20 1 0.40 1 0.25 0 0.85 -0.45 1.35 -1 0.85 -0.95 2.25 -1.35 2.25 -0.65 0 0.20 -0.60 1 -1.35 1.75 l-1.35 1.40 1.35 1.40 c0.75 0.75 1.35 1.55 1.35 1.75 0 0.70 -1.40 0.30 -2.25 -0.65 -1.15 -1.30 -1.75 -1.25 -1.75 0.05 0 0.70 -0.25 0.95 -0.85 0.85 -0.65 -0.10 -0.90 -0.70 -0.95 -1.90 -0.15 -4.20 -0.10 -4.10 -1.55 -3.90 -1.30 0.15 -1.40 0.35 -1.65 2.90 -0.20 2.10 -0.45 2.80 -1.10 2.90 -0.70 0.15 -0.90 -0.15 -0.90 -1.35 0 -1.50 -0.05 -1.55 -2.50 -1.55 -1.35 0 -2.50 0.20 -2.50 0.40 0 0.85 1.25 1.60 2.60 1.60 0.75 0 1.40 0.25 1.40 0.50 0 0.30 -1 0.50 -2.20 0.50 -1.75 0 -2.40 -0.25 -3 -1.10z m4.20 -3.35 c0 -0.25 -0.35 -0.70 -0.75 -1.05 -0.60 -0.50 -0.90 -0.50 -1.50 0 -1.15 0.95 -0.90 1.50 0.75 1.50 0.85 0 1.50 -0.20 1.50 -0.45z"/>
  <path d="M122.05 40.70 c-0.60 -0.75 -1.05 -1.70 -1.05 -2.20 0 -1.65 1.95 -3.50 3.70 -3.50 2.10 0 3.30 1.30 3.30 3.60 0 3.35 -3.90 4.70 -5.95 2.10z m3.90 -0.40 c0.85 -1 0.50 -3.35 -0.55 -3.95 -1.15 -0.75 -2.40 0.40 -2.40 2.10 0 2.25 1.75 3.30 2.95 1.85z"/>
  <path d="M132 38.50 c0 -0.25 0.90 -0.50 2 -0.50 1.10 0 2 0.25 2 0.50 0 0.30 -0.90 0.50 -2 0.50 -1.10 0 -2 -0.20 -2 -0.50z"/>
  <path d="M59.75 22.50 c-0.15 -0.30 -0.30 -5.25 -0.30 -11 0 -5.75 0.15 -10.70 0.30 -11 0.15 -0.30 2.40 -0.50 5 -0.50 4.65 0 4.75 0 6.35 1.65 3.20 3.20 3.35 7.20 0.35 10.40 l-1.35 1.45 2.20 3.40 c2.55 3.85 2.80 5.85 0.70 5.85 -0.70 0 -1.45 -0.40 -1.75 -1 -0.25 -0.55 -1.45 -2.55 -2.65 -4.40 -2.10 -3.30 -2.20 -3.40 -4 -3.25 l-1.85 0.15 -0.05 3.80 c0 2.05 -0.20 4.05 -0.40 4.35 -0.45 0.75 -2.15 0.80 -2.55 0.10z m9.10 -12.60 c1.60 -1.50 1.55 -4.35 -0.05 -5.85 -0.95 -0.90 -1.65 -1.10 -3.60 -0.95 l-2.45 0.15 -0.15 3.20 c-0.20 4.30 -0.05 4.55 2.75 4.55 1.70 0 2.65 -0.30 3.50 -1.10z"/>
  <path d="M79.95 21.50 c-2.55 -2.10 -3 -3.55 -2.85 -9.30 0.15 -4.90 0.15 -4.95 1.40 -4.95 1.25 0 1.25 0.10 1.55 4.75 0.15 2.60 0.45 5.15 0.65 5.60 0.50 1.15 2.50 2.40 3.80 2.40 1.30 0 3.30 -1.25 3.80 -2.40 0.20 -0.45 0.50 -3 0.65 -5.60 0.30 -4.65 0.30 -4.75 1.55 -4.75 l1.25 0 0 7.75 0 7.75 -1.20 0.15 c-0.65 0.10 -1.35 -0.10 -1.60 -0.50 -0.30 -0.50 -0.55 -0.50 -1.05 0 -0.35 0.35 -1.85 0.60 -3.40 0.60 -2.35 0 -3.05 -0.25 -4.55 -1.50z"/>
  <path d="M94.35 22.70 c-0.20 -0.20 -0.35 -3.70 -0.35 -7.80 0 -6.40 0.10 -7.45 0.80 -7.75 0.45 -0.15 1.30 -0.05 1.85 0.30 0.70 0.45 1.10 0.50 1.50 0.10 0.95 -0.95 5.45 -0.65 7.25 0.45 3 1.85 3.65 3.55 3.50 9.50 -0.15 5.25 -0.15 5.25 -1.40 5.25 -1.25 0 -1.25 -0.10 -1.55 -4.75 -0.30 -5.35 -0.55 -6.10 -2.20 -7.20 -1.55 -1 -2.95 -1 -4.50 0 -1.65 1.10 -1.90 1.85 -2.20 7.20 -0.25 4.30 -0.40 4.75 -1.30 4.90 -0.60 0.10 -1.20 0 -1.40 -0.20z"/>
  <path d="M112.85 21.45 c-3.40 -2.80 -1.60 -5.30 1.90 -2.70 1.25 1 2.10 1.30 3 1.05 1.70 -0.45 3.25 -2.25 3.25 -3.85 0 -1.70 -2.25 -3.95 -3.95 -3.95 -1.40 0 -3.55 -1.60 -4.45 -3.35 -0.35 -0.60 -0.60 -2 -0.60 -3.10 0 -1.65 0.35 -2.35 1.75 -3.80 1.50 -1.50 2.10 -1.75 4.05 -1.75 2.35 0 4.40 1 5.20 2.55 1.20 2.20 -1.50 3.40 -3.25 1.45 -1.15 -1.25 -2.35 -1.30 -3.40 -0.10 -1.75 1.95 -0.25 5.10 2.45 5.10 0.85 0 2 0.70 3.25 1.95 1.85 1.80 1.95 2.10 1.95 4.90 0 2.30 -0.25 3.35 -1.05 4.35 -2.55 3.20 -7.05 3.80 -10.10 1.25z"/>
  <path d="M126.80 22.20 c-0.45 -1.10 -0.35 -13.85 0.10 -14.50 0.20 -0.25 2.10 -0.55 4.25 -0.60 2.90 -0.10 4.20 0.10 5.15 0.70 1.15 0.80 1.40 0.80 3 0.05 3.25 -1.55 6.30 -1 8.60 1.60 1.05 1.20 1.10 1.70 1 7.30 l-0.15 6 -1.25 0 c-1.25 0 -1.25 0 -1.40 -5.25 -0.10 -4.55 -0.30 -5.40 -1.20 -6.35 -1.40 -1.50 -2.65 -1.45 -4.15 0.10 -1.15 1.10 -1.25 1.60 -1.25 5.70 0 5.05 -0.25 6.05 -1.45 6.05 -1.70 0 -2.05 -1.10 -2.05 -6.30 0 -4.85 -0.05 -5.10 -1.25 -5.90 -1.60 -1.05 -2.35 -1 -3.65 0.20 -1 0.95 -1.10 1.55 -1.10 5.90 0 5 -0.35 6.10 -2.05 6.10 -0.45 0 -1 -0.35 -1.15 -0.80z"/>
  <path d="M154.15 20.80 l-2.40 -2.20 0 -3.60 0 -3.60 2.40 -2.20 c2.25 -2.05 2.65 -2.20 5.15 -2.20 3.25 0 6.20 1.65 7.40 4.15 0.80 1.70 1.25 10.20 0.60 11.25 -0.45 0.75 -1.55 0.75 -2.80 0 -0.75 -0.50 -1.10 -0.50 -1.60 0 -0.35 0.35 -1.85 0.60 -3.45 0.60 -2.65 0 -3 -0.15 -5.30 -2.20z m8.30 -2.20 c1.45 -1.20 1.70 -1.70 1.70 -3.60 0 -1.90 -0.25 -2.40 -1.70 -3.60 -2.15 -1.80 -3.95 -1.80 -5.90 0.05 -1.25 1.20 -1.55 1.85 -1.55 3.55 0 1.70 0.30 2.35 1.55 3.55 1.95 1.85 3.75 1.85 5.90 0.05z"/>
  <path d="M170.35 22.70 c-0.20 -0.20 -0.35 -3.70 -0.35 -7.80 0 -8.05 0.25 -8.75 2.70 -7.40 0.90 0.45 1.45 0.45 2.20 0.05 1.55 -0.80 5.85 -0.70 6.60 0.20 1.10 1.35 0.20 2.25 -2.25 2.25 -2.45 0 -4.40 1 -5.40 2.70 -0.35 0.60 -0.70 3.10 -0.85 5.55 -0.25 4.05 -0.35 4.50 -1.25 4.65 -0.60 0.10 -1.20 0 -1.40 -0.20z"/>
  <path d="M187.60 21.95 c-1.70 -1.55 -2.10 -3.05 -2.10 -7.45 0 -3.45 -0.15 -4.05 -1 -4.50 -0.55 -0.30 -1 -0.95 -1 -1.50 0 -0.55 0.45 -1.20 1 -1.50 0.80 -0.40 1 -1.05 1 -3 0 -3.15 0.35 -4 1.75 -4 1.40 0 1.75 0.85 1.75 4.25 0 2.55 0.05 2.70 1.40 2.85 1.05 0.10 1.35 0.40 1.35 1.40 0 1 -0.30 1.30 -1.35 1.40 l-1.40 0.15 0 4.25 c0 4.60 0.40 5.50 2.55 5.80 0.90 0.10 1.20 0.45 1.20 1.40 0 1.10 -0.25 1.25 -2 1.40 -1.50 0.10 -2.30 -0.15 -3.15 -0.95z"/>
 </g>
</svg>