<?xml version="1.0" encoding="utf-8"?>
<!DOCTYPE svg PUBLIC "-//W3C//DTD SVG 20010904//EN" "http://www.w3.org/TR/2001/REC-SVG-20010904/DTD/svg10.dtd">
<svg version="1.0" xmlns="http://www.w3.org/2000/svg" width="21px" height="20px" viewBox="0 0 21 20" preserveAspectRatio="xMidYMid meet">
 <g fill="#67c5d7">
  <path d="M2.9 17.1 c-6.9 -6.9 -0.9 -17.9 9.2 -16.9 1.8 0.2 3.4 0.8 3.6 1.4 0.3 0.8 -1 1 -4.1 0.7 -3.8 -0.5 -4.8 -0.2 -7 2 -3.2 3.2 -3.4 7.4 -0.5 11.1 2.8 3.5 9.5 3.7 12.7 0.3 2.2 -2.4 3.2 -9.7 1.3 -9.7 -0.5 0 -2.3 2.3 -4 5 -1.7 2.8 -3.4 5 -3.8 5 -0.5 0 -1.8 -1.6 -3.1 -3.5 -1.6 -2.6 -1.8 -3.5 -0.8 -3.5 0.7 0 2 0.9 2.7 2.1 1.3 1.9 1.6 1.8 4.8 -3.7 3.5 -5.6 3.5 -5.6 5.3 -3.4 2.9 3.6 2.4 9.6 -1.1 13.1 -2.4 2.4 -3.8 2.9 -7.6 2.9 -3.8 0 -5.2 -0.5 -7.6 -2.9z"/>
 </g>
 <g fill="#f2fafc">
  <path d="M0 16.8 c0 -3.2 0 -3.2 1.5 -1.1 0.9 1.3 2.3 2.7 3.3 3.2 1.4 0.9 1.1 1 -1.5 1.1 -3.1 0 -3.3 -0.2 -3.3 -3.2z"/>
  <path d="M16.2 18.9 c1 -0.5 2.4 -1.9 3.3 -3.2 1.5 -2.1 1.5 -2.1 1.5 1.1 0 3 -0.2 3.2 -3.2 3.2 -2.7 -0.1 -3 -0.2 -1.6 -1.1z"/>
  <path d="M4.1 15.4 c-2.9 -3.7 -2.7 -7.9 0.5 -11.1 2.2 -2.2 3.2 -2.5 7 -2 3.6 0.4 4.4 0.2 4 -0.9 -0.4 -1 0.3 -1.4 2.4 -1.4 2.7 0 3 0.3 3 3.1 0 3.1 0 3.1 -1.8 0.9 -1.8 -2.2 -1.8 -2.2 -5.3 3.4 -3.2 5.5 -3.5 5.6 -4.8 3.7 -0.7 -1.2 -2 -2.1 -2.7 -2.1 -1 0 -0.8 0.9 0.8 3.5 1.3 1.9 2.6 3.5 3.1 3.5 0.4 0 2.1 -2.2 3.8 -5 1.7 -2.7 3.5 -5 4 -5 0.5 0 0.9 1.7 0.9 3.8 0 5.2 -3.2 8.2 -8.7 8.2 -3.3 0 -4.6 -0.6 -6.2 -2.6z"/>
  <path d="M0 3.8 c0 -3.7 0.1 -3.8 3.8 -3.8 3.6 0.1 3.6 0.1 1.3 1.4 -1.3 0.7 -3 2.4 -3.7 3.7 -1.3 2.3 -1.3 2.3 -1.4 -1.3z"/>
 </g>
</svg>