<svg width="1162" height="395" viewBox="0 0 1162 395" fill="none" xmlns="http://www.w3.org/2000/svg">
<path fill-rule="evenodd" clip-rule="evenodd" d="M102.052 128.437V90.3871C102.052 58.0002 116.931 53.1398 131.503 48.8041C158.572 40.7652 164.456 59.2808 164.514 83.9992V112.081L158.572 113.655V83.3357C158.572 70.2668 157.016 49.7299 132.706 57.1978C116.542 62.1662 107.806 68.9553 107.994 91.1277V126.894L102.052 128.437ZM191.289 100.154V105.045L185.406 106.635V100.154C185.406 82.6414 185.712 74.2476 170.162 77.1638C169.961 74.3711 169.643 71.748 169.242 69.3564C188.059 65.6687 191.289 72.9515 191.289 100.154ZM151.958 74.6642C152.336 76.8707 152.548 79.5709 152.595 82.7494C143.918 87.6406 140.569 91.174 140.723 108.008V118.33L134.781 119.889V107.946C134.781 83.1351 142.031 79.2314 151.958 74.6642ZM253.763 122.265V332.541L221.058 348.094L57.4161 305.276V149.529L221.058 106.696L253.763 122.265ZM179.252 226.909H133.472V273.429L179.252 282.178V226.909ZM128.909 177.935L92.5968 184.647V220.938H128.909V177.935ZM128.909 226.909H92.5968V266.363L128.909 273.059V226.909ZM179.252 168.816L133.472 177.596V220.938H179.252V168.816Z" fill="white"/>
<path fill-rule="evenodd" clip-rule="evenodd" d="M102.052 128.437V90.3871C102.052 58.0002 116.931 53.1398 131.503 48.8041C158.572 40.7652 164.456 59.2808 164.514 83.9992V112.081L158.572 113.655V83.3357C158.572 70.2668 157.016 49.7299 132.706 57.1978C116.542 62.1662 107.806 68.9553 107.994 91.1277V126.894L102.052 128.437ZM191.289 100.154V105.045L185.406 106.635V100.154C185.406 82.6414 185.712 74.2476 170.162 77.1638C169.961 74.3711 169.643 71.748 169.242 69.3564C188.059 65.6687 191.289 72.9515 191.289 100.154ZM151.958 74.6642C152.336 76.8707 152.548 79.5709 152.595 82.7494C143.918 87.6406 140.569 91.174 140.723 108.008V118.33L134.781 119.889V107.946C134.781 83.1351 142.031 79.2314 151.958 74.6642ZM253.763 122.265V332.541L221.058 348.094L57.4161 305.276V149.529L221.058 106.696L253.763 122.265ZM179.252 226.909H133.472V273.429L179.252 282.178V226.909ZM128.909 177.935L92.5968 184.647V220.938H128.909V177.935ZM128.909 226.909H92.5968V266.363L128.909 273.059V226.909ZM179.252 168.816L133.472 177.596V220.938H179.252V168.816Z" fill="white"/>
<path fill-rule="evenodd" clip-rule="evenodd" d="M364.787 112.498C364.787 120.444 363.455 127.48 360.779 133.59C358.114 139.67 354.318 144.376 349.402 147.678C344.473 150.964 338.838 152.6 332.507 152.6H316.697V74.3248H333.214C354.259 74.3248 364.787 87.0234 364.787 112.498ZM357.454 112.698C357.454 92.6398 349.319 82.626 333.049 82.626H323.7V144.314H332.589C340.489 144.314 346.607 141.552 350.934 136.044C355.285 130.535 357.454 122.759 357.454 112.698ZM414.469 124.456C414.469 133.312 412.548 140.472 408.692 145.872C404.837 151.257 399.673 153.988 393.201 153.988C386.881 153.988 381.847 151.334 378.074 146.073C374.313 140.827 372.427 133.883 372.427 125.304C372.427 116.078 374.361 108.748 378.216 103.41C382.083 98.0402 387.412 95.34 394.203 95.34C400.546 95.34 405.509 97.9168 409.093 103.101C412.677 108.316 414.469 115.414 414.469 124.456ZM407.466 124.764C407.466 117.744 406.275 112.359 403.894 108.61C401.524 104.86 398.117 102.978 393.696 102.978C389.31 102.978 385.832 104.891 383.274 108.733C380.715 112.575 379.43 118.006 379.43 124.965C379.43 131.692 380.715 136.908 383.285 140.688C385.867 144.453 389.334 146.335 393.696 146.335C398.152 146.335 401.548 144.484 403.918 140.78C406.287 137.046 407.466 131.723 407.466 124.764ZM478.877 96.6979L466.073 152.6H458.976L450.169 112.575C449.874 111.217 449.65 109.489 449.509 107.452H449.343C449.261 108.718 448.966 110.415 448.471 112.498L438.921 152.6H432.072L419.185 96.6979H426.365L435.16 138.744C435.443 140.194 435.632 141.876 435.75 143.774H436.08C436.127 142.401 436.398 140.672 436.87 138.636L446.667 96.6979H452.939L461.817 138.852C462.1 140.271 462.289 141.953 462.395 143.882H462.725C462.796 142.123 463.008 140.472 463.397 138.852L472.121 96.6979H478.877ZM522.299 152.6H515.461V120.722C515.461 108.887 512.148 102.978 505.534 102.978C502.162 102.978 499.344 104.66 497.08 107.977C494.817 111.31 493.685 115.568 493.685 120.722V152.6H486.847V96.6979H493.685V105.987H493.85C497.057 98.8889 501.725 95.34 507.868 95.34C512.572 95.34 516.144 97.3305 518.608 101.358C521.072 105.354 522.299 111.032 522.299 118.361V152.6ZM542.035 152.6H535.197V69.8502H542.035V152.6ZM594.676 124.456C594.676 133.312 592.742 140.472 588.899 145.872C585.044 151.257 579.88 153.988 573.396 153.988C567.088 153.988 562.042 151.334 558.281 146.073C554.508 140.827 552.622 133.883 552.622 125.304C552.622 116.078 554.555 108.748 558.422 103.41C562.29 98.0402 567.618 95.34 574.398 95.34C580.752 95.34 585.704 97.9168 589.3 103.101C592.884 108.316 594.676 115.414 594.676 124.456ZM587.673 124.764C587.673 117.744 586.47 112.359 584.101 108.61C581.719 104.86 578.324 102.978 573.902 102.978C569.505 102.978 566.027 104.891 563.469 108.733C560.922 112.575 559.637 118.006 559.637 124.965C559.637 131.692 560.922 136.908 563.492 140.688C566.062 144.453 569.54 146.335 573.902 146.335C578.347 146.335 581.754 144.484 584.124 140.78C586.482 137.046 587.673 131.723 587.673 124.764ZM635.516 152.6H628.678V143.882H628.513C625.53 150.594 621.144 153.988 615.367 153.988C611.252 153.988 607.951 152.507 605.487 149.591C603.011 146.644 601.773 142.709 601.773 137.741C601.773 127.357 606.466 121.277 615.862 119.518L628.678 117.173C628.678 107.73 625.742 102.978 619.871 102.978C614.73 102.978 610.085 105.261 605.947 109.813V100.648C607.185 99.398 609.331 98.21 612.361 97.0682C615.402 95.9109 618.091 95.34 620.46 95.34C630.493 95.34 635.516 102.314 635.516 116.263V152.6ZM628.678 124.332L618.326 126.23C614.801 126.878 612.325 128.005 610.911 129.548C609.484 131.091 608.777 133.59 608.777 137.046C608.777 139.855 609.543 142.107 611.076 143.789C612.596 145.471 614.554 146.335 616.947 146.335C620.342 146.335 623.148 144.761 625.353 141.629C627.57 138.512 628.678 134.593 628.678 129.903V124.332ZM684.526 152.6H677.688V143.11H677.523C674.351 150.347 669.447 153.988 662.833 153.988C657.445 153.988 653.142 151.442 649.946 146.366C646.751 141.29 645.148 134.485 645.148 126.03C645.148 116.772 646.928 109.366 650.465 103.734C654.014 98.1482 658.765 95.34 664.719 95.34C670.555 95.34 674.823 98.3642 677.523 104.397H677.688V69.8502H684.526V152.6ZM677.688 127.341V119.071C677.688 114.473 676.521 110.631 674.163 107.56C671.816 104.521 668.952 102.978 665.592 102.978C661.477 102.978 658.211 104.968 655.782 108.964C653.377 112.945 652.163 118.469 652.163 125.521C652.163 131.924 653.295 137 655.582 140.75C657.857 144.484 660.935 146.335 664.802 146.335C668.551 146.335 671.64 144.561 674.068 140.966C676.474 137.417 677.688 132.88 677.688 127.341ZM739.384 77.7193C738.051 76.7164 736.531 76.2381 734.833 76.2381C730.058 76.2381 727.665 80.1881 727.665 88.0881V96.6979H737.674V104.274H727.665V152.6H720.827V104.274H713.564V96.6979H720.827V87.6252C720.827 81.9779 722.1 77.3645 724.658 73.8928C727.217 70.3902 730.471 68.6467 734.42 68.6467C736.507 68.6467 738.158 68.9553 739.384 69.6187V77.7193ZM767.29 105.77C766.064 104.567 764.331 103.965 762.067 103.965C759.037 103.965 756.585 105.832 754.699 109.551C752.8 113.285 751.857 118.145 751.857 124.116V152.6H745.007V96.6979H751.857V108.224H752.022C752.966 104.366 754.427 101.327 756.396 99.074C758.377 96.8521 760.641 95.7258 763.199 95.7258C764.979 95.7258 766.347 95.9727 767.29 96.4818V105.77ZM812.445 124.456C812.445 133.312 810.511 140.472 806.668 145.872C802.813 151.257 797.649 153.988 791.164 153.988C784.857 153.988 779.811 151.334 776.05 146.073C772.277 140.827 770.391 133.883 770.391 125.304C770.391 116.078 772.324 108.748 776.191 103.41C780.058 98.0402 785.387 95.34 792.167 95.34C798.509 95.34 803.473 97.9168 807.069 103.101C810.653 108.316 812.445 115.414 812.445 124.456ZM805.442 124.764C805.442 117.744 804.239 112.359 801.869 108.61C799.488 104.86 796.093 102.978 791.671 102.978C787.274 102.978 783.796 104.891 781.237 108.733C778.679 112.575 777.394 118.006 777.394 124.965C777.394 131.692 778.691 136.908 781.261 140.688C783.831 144.453 787.309 146.335 791.671 146.335C796.116 146.335 799.523 144.484 801.893 140.78C804.251 137.046 805.442 131.723 805.442 124.764ZM883.691 152.6H876.852V120.49C876.852 114.257 876.121 109.767 874.66 107.067C873.198 104.336 870.745 102.978 867.291 102.978C864.379 102.978 861.891 104.737 859.852 108.224C857.812 111.726 856.786 115.877 856.786 120.722V152.6H849.936V119.426C849.936 108.471 846.706 102.978 840.222 102.978C837.215 102.978 834.739 104.644 832.794 107.931C830.849 111.233 829.882 115.491 829.882 120.722V152.6H823.032V96.6979H829.882V105.539H830.047C833.077 98.75 837.486 95.34 843.275 95.34C846.046 95.34 848.557 96.3738 850.774 98.4106C853.002 100.432 854.546 103.302 855.407 106.959C858.578 99.2129 863.306 95.34 869.59 95.34C878.986 95.34 883.691 102.931 883.691 118.176V152.6Z" fill="white"/>
<path fill-rule="evenodd" clip-rule="evenodd" d="M426.153 202.869L400.982 319.472H388.756L370.411 234.176C369.715 230.967 369.267 227.032 369.055 222.403H368.808C368.478 226.384 367.912 230.273 367.134 234.037L348.671 319.472H336.563L310.531 202.869H321.955L340.913 292.315C341.703 296.265 342.21 300.185 342.458 304.027H342.717C342.906 300.709 343.542 296.821 344.58 292.315L364.339 202.869H374.396L393.224 292.963C393.932 296.327 394.427 299.938 394.71 303.78H394.957C395.158 300.941 395.724 297.237 396.643 292.639L414.847 202.869H426.153ZM446.373 208.825C446.373 211.325 445.712 213.408 444.38 215.044C443.048 216.695 441.492 217.512 439.652 217.512C437.79 217.512 436.222 216.725 434.937 215.136C433.651 213.516 433.003 211.418 433.003 208.825C433.003 206.48 433.651 204.474 434.913 202.746C436.174 201.064 437.754 200.185 439.652 200.185C441.562 200.185 443.154 201.049 444.451 202.715C445.724 204.413 446.373 206.434 446.373 208.825ZM444.628 319.472H434.43V236.198H444.628V319.472ZM512.867 319.472H502.669V271.995C502.669 254.374 497.741 245.548 487.896 245.548C482.874 245.548 478.677 248.048 475.305 253.001C471.921 257.938 470.235 264.295 470.235 271.995V319.472H460.061V236.198H470.235V250.038H470.483C475.258 239.469 482.202 234.176 491.362 234.176C498.366 234.176 503.694 237.17 507.361 243.11C511.028 249.097 512.867 257.537 512.867 268.492V319.472ZM583.558 319.472H573.372V305.323H573.136C568.409 316.123 561.122 321.493 551.266 321.493C543.226 321.493 536.824 317.713 532.061 310.168C527.309 302.607 524.928 292.516 524.928 279.879C524.928 266.131 527.569 255.053 532.851 246.705C538.121 238.373 545.194 234.176 554.06 234.176C562.749 234.176 569.116 238.666 573.136 247.662H573.372V196.188H583.558V319.472ZM573.372 281.808V269.541C573.372 262.675 571.627 256.966 568.126 252.383C564.624 247.832 560.38 245.548 555.369 245.548C549.238 245.548 544.369 248.526 540.773 254.466C537.166 260.391 535.35 268.615 535.35 279.138C535.35 288.689 537.06 296.219 540.455 301.774C543.85 307.359 548.425 310.106 554.19 310.106C559.767 310.106 564.376 307.452 567.972 302.144C571.592 296.852 573.372 290.063 573.372 281.808ZM658.801 277.518C658.801 290.742 655.936 301.388 650.182 309.427C644.453 317.497 636.754 321.493 627.11 321.493C617.713 321.493 610.203 317.589 604.58 309.766C598.968 301.928 596.173 291.621 596.173 278.83C596.173 265.036 599.05 254.158 604.815 246.181C610.569 238.173 618.492 234.176 628.607 234.176C638.039 234.176 645.431 238.034 650.784 245.764C656.125 253.479 658.801 264.064 658.801 277.518ZM648.355 277.997C648.355 267.535 646.587 259.543 643.05 253.942C639.501 248.341 634.443 245.548 627.853 245.548C621.309 245.548 616.134 248.418 612.325 254.127C608.517 259.851 606.607 267.921 606.607 278.336C606.607 288.319 608.529 296.096 612.361 301.681C616.181 307.313 621.356 310.106 627.853 310.106C634.467 310.106 639.56 307.359 643.073 301.836C646.598 296.296 648.355 288.35 648.355 277.997ZM751.539 236.198L732.463 319.472H721.9L708.801 259.867C708.353 257.815 708.011 255.269 707.811 252.229H707.551C707.422 254.127 706.997 256.611 706.255 259.712L692.024 319.472H681.838L662.632 236.198H673.326L686.424 298.827C686.837 300.971 687.132 303.502 687.297 306.31H687.792C687.874 304.243 688.263 301.681 688.971 298.657L703.578 236.198H712.904L726.132 298.981C726.533 301.079 726.84 303.579 726.993 306.464H727.488C727.582 303.872 727.912 301.373 728.49 298.981L741.471 236.198H751.539ZM794.949 297.176C794.949 304.397 792.827 310.26 788.583 314.766C784.338 319.256 778.691 321.493 771.664 321.493C765.651 321.493 760.393 319.827 755.878 316.447V302.144C760.877 307.452 766.394 310.106 772.407 310.106C780.471 310.106 784.527 306.248 784.527 298.487C784.527 295.34 783.737 292.778 782.157 290.803C780.577 288.828 776.993 286.159 771.405 282.811C765.781 279.663 761.796 276.299 759.474 272.673C757.151 269.078 755.996 264.295 755.996 258.324C755.996 251.442 758.118 245.687 762.339 241.089C766.559 236.491 771.924 234.176 778.432 234.176C783.442 234.176 787.97 235.472 792.037 238.08V251.488C787.887 247.554 783.1 245.548 777.63 245.548C774.258 245.548 771.57 246.644 769.518 248.819C767.455 250.964 766.43 253.787 766.43 257.197C766.43 260.885 767.231 263.693 768.799 265.684C770.379 267.643 773.621 270.019 778.55 272.689C784.598 276.068 788.842 279.601 791.282 283.304C793.723 286.961 794.949 291.621 794.949 297.176Z" fill="white"/>
<path fill-rule="evenodd" clip-rule="evenodd" d="M885.624 290.047C885.624 299.845 882.972 307.545 877.666 313.145C872.373 318.716 865.169 321.524 856.055 321.524C852.731 321.524 848.993 320.799 844.843 319.364C840.67 317.929 837.722 316.401 835.977 314.858V298.672C838.512 301.65 841.825 304.135 845.952 306.14C850.078 308.146 853.921 309.165 857.482 309.165C868.918 309.165 874.613 303.332 874.613 291.667C874.613 286.776 873.41 282.61 870.958 279.108C868.517 275.62 863.507 271.022 855.926 265.329C848.593 259.898 843.452 254.744 840.517 249.884C837.569 244.993 836.095 239.068 836.095 232.078C836.095 222.851 838.736 215.368 843.995 209.597C849.265 203.811 856.055 200.941 864.379 200.941C872.373 200.941 878.208 202.299 881.899 205.076V220.351C877.265 215.584 871.229 213.207 863.813 213.207C858.873 213.207 854.865 214.812 851.74 218.037C848.604 221.262 847.036 225.536 847.036 230.844C847.036 234.686 847.508 237.802 848.439 240.117C849.371 242.462 850.939 244.761 853.167 247.029C855.383 249.313 859.109 252.383 864.379 256.225C872.243 261.965 877.76 267.396 880.908 272.488C884.044 277.58 885.624 283.443 885.624 290.047ZM927.726 318.669C925.285 320.459 922.09 321.354 918.152 321.354C907.058 321.354 901.505 313.161 901.505 296.805V247.523H890.564V236.213H901.505V215.892L911.691 211.587V236.213H927.726V247.523H911.691V294.522C911.691 300.107 912.422 304.073 913.873 306.434C915.323 308.779 917.74 309.967 921.135 309.967C923.658 309.967 925.863 309.087 927.726 307.282V318.669ZM997.969 277.518C997.969 290.742 995.104 301.388 989.363 309.427C983.633 317.481 975.934 321.524 966.278 321.524C956.882 321.524 949.372 317.605 943.76 309.766C938.148 301.928 935.342 291.621 935.342 278.83C935.342 265.051 938.207 254.158 943.984 246.196C949.737 238.188 957.672 234.176 967.775 234.176C977.219 234.176 984.611 238.034 989.964 245.764C995.305 253.479 997.969 264.079 997.969 277.518ZM987.535 277.997C987.535 267.551 985.755 259.527 982.218 253.957C978.681 248.341 973.611 245.563 967.033 245.563C960.478 245.563 955.302 248.418 951.482 254.127C947.686 259.851 945.787 267.936 945.787 278.336C945.787 288.319 947.686 296.111 951.529 301.712C955.361 307.329 960.525 310.121 967.033 310.121C973.647 310.121 978.728 307.375 982.253 301.836C985.778 296.312 987.535 288.365 987.535 277.997ZM1041.84 249.699C1040.01 247.924 1037.43 247.029 1034.07 247.029C1029.55 247.029 1025.89 249.822 1023.08 255.346C1020.25 260.931 1018.85 268.153 1018.85 277.04V319.487H1008.66V236.213H1018.85V253.371H1019.1C1020.5 247.616 1022.68 243.079 1025.62 239.746C1028.56 236.429 1031.95 234.747 1035.73 234.747C1038.41 234.747 1040.44 235.133 1041.84 235.904V249.699ZM1103.22 281.175H1058.3C1058.46 290.572 1060.36 297.731 1063.98 302.7C1067.61 307.653 1072.63 310.121 1079.05 310.121C1086.25 310.121 1092.82 307.112 1098.75 301.018V313.47C1093.2 318.839 1085.83 321.524 1076.63 321.524C1067.55 321.524 1060.48 317.682 1055.37 309.998C1050.28 302.329 1047.73 291.729 1047.73 278.182C1047.73 269.942 1049 262.397 1051.55 255.624C1054.1 248.804 1057.61 243.527 1062.08 239.808C1066.56 236.043 1071.54 234.176 1076.98 234.176C1085.25 234.176 1091.67 237.694 1096.3 244.715C1100.91 251.735 1103.22 261.564 1103.22 274.201V281.175ZM1092.78 269.881C1092.7 262.181 1091.29 256.21 1088.53 251.951C1085.77 247.693 1081.89 245.563 1076.88 245.563C1072.15 245.563 1068.11 247.785 1064.76 252.229C1061.4 256.673 1059.3 262.552 1058.42 269.881H1092.78Z" fill="white"/>
</svg>
