<svg width="2286" height="780" viewBox="0 0 2286 780" fill="none" xmlns="http://www.w3.org/2000/svg">
<path d="M31.1916 746.027C30.3911 744.958 29.705 742.287 29.705 740.016C29.705 736.41 30.048 736.009 33.2501 736.009C37.7102 736.009 39.9974 738.68 39.9974 743.89C39.9974 747.63 39.6543 748.031 36.3378 748.031C34.2794 747.897 31.8778 747.096 31.1916 746.027Z" fill="white"/>
<path d="M1291.67 667.885C1277.95 664.679 1264.22 655.328 1254.39 642.772C1246.04 631.952 1241.69 622.602 1242.15 616.324C1242.49 611.515 1242.49 611.515 1256.1 604.97C1273.49 596.555 1274.74 596.555 1279.09 605.237C1288.58 623.938 1305.51 632.086 1321.06 625.14C1333.3 619.797 1341.19 606.974 1343.24 589.074L1344.05 582.262L1339.81 585.601C1331.58 592.147 1325.06 593.749 1307.68 593.749C1293.96 593.616 1290.64 593.215 1284.23 590.544C1266.28 583.063 1251.76 567.969 1243.64 548.333C1237.58 533.506 1236.2 526.159 1236.2 507.592C1236.2 488.891 1237.58 481.678 1243.75 466.584C1251.76 447.082 1265.71 432.388 1283.78 424.374C1289.72 421.836 1292.7 421.435 1308.25 421.435H1325.98L1334.9 426.377L1343.7 431.32V428.114V424.775H1362H1380.41L1380.07 516.008L1379.73 607.107L1376.52 618.06C1368.86 644.375 1352.51 661.473 1329.41 667.217C1320.94 669.354 1299.44 669.621 1291.67 667.885V667.885ZM1324.03 548.868C1338.9 540.185 1348.28 518.813 1345.07 500.379C1342.33 484.617 1335.35 473.263 1324.15 466.183C1315.11 460.573 1308.02 460.306 1298.76 465.248C1281.83 474.332 1272 497.44 1276.23 518.145C1278.06 527.228 1285.04 539.25 1291.55 544.727C1302.76 554.077 1312.83 555.413 1324.03 548.868V548.868Z" fill="white"/>
<path d="M2006.99 660.003C2006.99 657.733 2013.62 639.032 2022.43 616.591L2037.75 577.186L2010.42 505.188C1993.5 460.707 1982.97 431.587 1982.97 428.915V424.775H2003.45H2023.92L2029.86 441.872C2035.81 458.837 2047.25 491.029 2054.22 510.531C2056.28 516.275 2058.22 520.95 2058.57 520.95C2058.91 520.95 2066.57 499.31 2075.61 472.862L2092.07 424.775H2113H2133.93V429.049C2133.93 431.587 2126.04 454.028 2113.8 486.754C2102.6 516.275 2088.07 555.012 2081.21 573.045C2074.46 591.078 2064.06 618.728 2058.11 634.49L2047.25 663.209L2027.12 663.61L2006.99 663.877V660.003V660.003Z" fill="white"/>
<path d="M784.138 592.28C749.03 584.933 716.437 555.546 701.57 517.744C693.794 498.242 692.421 489.827 692.421 461.508C692.421 439.067 692.764 434.926 695.052 425.576C706.259 380.293 735.078 346.899 774.761 333.141C783.566 330.069 787.798 329.534 804.494 329C820.848 328.466 825.651 328.733 834.8 331.004C852.754 335.278 868.879 344.495 883.174 358.253C891.522 366.535 891.065 369.207 877.913 384.434C864.991 399.395 863.275 399.929 853.669 390.846C837.087 375.084 812.728 368.539 792.486 374.55C764.697 382.698 743.197 407.142 734.506 440.269C731.304 452.959 731.761 473.397 735.764 486.888C747.886 528.029 782.766 555.146 817.188 550.203C845.778 546.062 867.964 525.759 875.283 497.04C876.312 493.032 877.113 489.559 877.113 489.292C877.113 489.025 860.874 488.891 841.089 488.891H805.066V467.519V446.147H859.959H914.737L915.538 450.822C915.881 453.494 915.995 465.649 915.652 477.938C915.309 495.303 914.623 502.65 912.679 510.932C902.615 553.81 872.996 584.533 833.999 592.414C821.763 594.952 796.146 594.818 784.138 592.28V592.28Z" fill="white"/>
<path d="M976.034 592.547C949.617 585.468 929.147 562.092 922.285 530.968C919.998 520.549 919.998 495.036 922.399 483.548C927.774 456.566 944.814 434.926 968.715 424.641C975.348 421.702 977.75 421.435 996.047 421.435C1014.69 421.569 1016.63 421.702 1024.29 425.042C1046.71 434.526 1063.52 455.631 1069.24 481.545C1072.1 494.502 1072.33 518.813 1069.81 531.503C1064.32 558.352 1045.45 581.861 1022.35 590.677C1012.74 594.284 986.441 595.352 976.034 592.547V592.547ZM1010.34 548.6C1017.43 544.46 1026.12 533.773 1029.44 525.358C1033.33 515.473 1033.1 498.776 1028.98 488.624C1023.15 473.931 1009.2 462.176 997.305 461.909C994.446 461.775 989.529 462.71 986.327 464.046C964.941 472.462 953.849 501.314 962.769 525.358C967 536.712 977.635 547.799 988.042 551.806C993.188 553.81 1004.28 552.207 1010.34 548.6Z" fill="white"/>
<path d="M1133.85 592.547C1112.47 586.803 1092.91 568.637 1084.45 546.463C1075.76 523.621 1076.21 486.888 1085.71 465.248C1094.51 444.945 1112.92 428.114 1132.48 422.771C1141.97 420.099 1166.1 420.099 1175.02 422.771C1184.74 425.71 1199.15 434.258 1206.01 441.338C1213.9 449.486 1221.91 463.378 1225.57 475.534C1229.57 488.624 1230.71 516.675 1227.74 530.434C1221.68 558.886 1204.98 580.258 1181.08 590.009C1173.88 593.081 1170.45 593.616 1156.72 593.883C1145.97 594.284 1138.43 593.749 1133.85 592.547ZM1168.16 548.6C1184.17 538.983 1193.32 516.675 1189.32 497.04C1184.97 475.667 1163.93 457.902 1148.26 462.443C1125.16 468.989 1111.44 497.574 1119.56 522.553C1122.87 532.972 1131.79 544.326 1140.71 549.268C1146.66 552.608 1148.6 553.142 1155.01 552.608C1160.04 552.207 1164.27 551.005 1168.16 548.6Z" fill="white"/>
<path d="M1497.17 592.414C1472.01 585.868 1451.43 562.092 1444.91 532.304C1442.51 521.351 1442.62 492.498 1445.02 481.01C1450.17 457.1 1464.01 437.197 1482.31 427.58C1492.94 421.836 1501.52 420.367 1518.33 421.034C1531.02 421.569 1534 422.103 1540.74 425.442C1556.07 432.656 1567.96 446.548 1576.54 466.851C1580.2 475.801 1581.57 480.61 1581.57 485.018V491.162L1535.83 512.935C1510.67 524.957 1490.08 535.109 1490.08 535.643C1490.08 537.246 1499.92 547.398 1503.81 549.669C1505.98 551.005 1511.13 552.341 1515.24 552.608C1525.99 553.543 1534 549.669 1542.92 539.517C1552.29 528.831 1554.01 528.831 1568.99 540.586C1580.08 549.135 1580.43 549.535 1580.43 554.478C1580.43 564.496 1562.02 582.93 1544.75 590.143C1537.54 593.081 1534.23 593.616 1520.39 594.017C1509.64 594.284 1502.09 593.749 1497.17 592.414V592.414ZM1511.81 482.747C1523.48 477.137 1533.43 472.194 1534 471.526C1535.14 470.191 1527.59 464.313 1521.65 462.176C1509.64 457.768 1492.71 468.454 1485.62 485.151C1480.82 496.238 1480.93 497.44 1486.42 494.769C1488.71 493.7 1500.15 488.224 1511.81 482.747V482.747Z" fill="white"/>
<path d="M1895.26 592.414C1885.77 590.009 1875.82 583.597 1869.3 575.984C1851.69 555.546 1851.69 517.477 1869.3 497.574C1875.48 490.494 1890 481.945 1900.06 479.407C1909.44 477.003 1933.8 477.404 1941.81 479.942C1945.24 481.01 1948.21 481.812 1948.44 481.545C1948.55 481.411 1947.07 478.606 1945.01 475.4C1940.66 468.855 1931.63 462.844 1923.85 461.508C1915.73 460.172 1906.81 463.913 1900.18 471.66C1892.97 480.075 1890.8 480.075 1873.76 471.927L1860.61 465.515V460.44C1860.61 446.28 1879.25 427.713 1899.49 421.969C1908.76 419.298 1934.72 419.699 1943.98 422.637C1965.82 429.583 1980.57 446.147 1985.83 469.523C1987.21 476.068 1987.55 487.422 1987.55 533.239V589.074H1968.68H1949.81V584.399V579.724L1944.44 584.265C1941.35 586.803 1936.43 589.876 1933.23 591.078C1925.57 594.284 1904.75 594.952 1895.26 592.414V592.414ZM1927.62 549.802C1930.94 548.066 1935.74 544.326 1938.37 541.521C1943.29 536.311 1949.24 524.423 1948.1 522.286C1946.84 519.881 1932.31 515.607 1925.22 515.607C1911.96 515.607 1899.95 522.686 1896.52 532.571C1895.03 536.445 1895.15 537.513 1896.63 540.853C1901.44 551.94 1916.07 556.081 1927.62 549.802V549.802Z" fill="white"/>
<path d="M1395.39 463.245L1395.74 337.282L1414.95 336.881L1434.05 336.614V462.844V589.074H1414.61H1395.16L1395.39 463.245Z" fill="white"/>
<path d="M1644.47 462.71V336.347L1691.7 336.881C1731.5 337.415 1739.85 337.816 1745.68 339.686C1770.49 347.968 1789.02 368.672 1794.85 394.853C1796.91 403.937 1797.14 426.778 1795.31 437.064C1791.54 458.035 1778.5 477.137 1760.89 487.422C1746.71 495.57 1739.85 496.906 1709.43 496.906H1683.35V542.99V589.074H1663.91H1644.47V462.71V462.71ZM1737.44 450.421C1748.65 443.876 1757.57 429.717 1757.69 417.962C1757.69 405.539 1748.99 390.579 1737.79 383.633C1732.07 380.16 1731.38 380.026 1707.71 379.626L1683.35 379.091V417.428V455.764L1706.57 455.23L1729.78 454.829L1737.44 450.421Z" fill="white"/>
<path d="M1807.09 463.245L1807.43 337.282L1826.64 336.881L1845.74 336.614V462.844V589.074H1826.3H1806.86L1807.09 463.245Z" fill="white"/>
<path d="M735.421 258.338C716.78 252.46 701.57 234.16 697.682 212.654C695.852 202.636 696.081 183.668 698.139 174.318C700.655 163.097 705.001 154.682 712.549 146.267C724.328 133.176 741.024 126.898 758.979 128.768C777.277 130.772 793.63 141.458 793.63 151.476C793.63 157.754 786.425 165.635 780.822 165.635C778.535 165.635 776.133 164.7 775.332 163.498C772.702 160.025 764.697 155.216 758.75 153.613C748 150.808 736.221 156.285 726.958 168.307C714.607 184.336 715.293 207.578 728.445 222.94C736.221 232.157 743.083 235.63 753.032 235.63C762.181 235.63 768.814 232.825 775.79 225.745C779.335 222.005 784.481 213.055 784.481 210.517C784.481 210.116 776.59 209.582 767.099 209.449L749.601 209.048L749.258 197.427L748.915 185.672H777.505H805.981L806.667 193.419C807.811 204.506 805.638 221.07 801.978 229.752C796.146 243.778 782.766 255.533 768.7 259.006C760.351 261.009 742.854 260.742 735.421 258.338Z" fill="white"/>
<path d="M1191.72 258.338C1182.8 255.533 1175.48 250.457 1168.39 242.175C1159.7 232.023 1155.24 220.936 1153.52 205.708C1148.26 156.552 1177.08 122.757 1218.71 129.302C1234.6 131.84 1246.15 139.588 1255.07 153.747C1262.96 166.303 1265.14 176.188 1264.57 198.094C1264.22 215.593 1264.11 216.127 1259.88 226.012C1252.79 242.976 1238.72 255.8 1223.74 259.139C1215.05 261.009 1199.04 260.608 1191.72 258.338V258.338ZM1223.17 232.023C1230.14 227.882 1237.92 218.398 1241.12 209.983C1250.61 185.138 1233 153.613 1209.33 153.079C1196.86 152.812 1183.37 163.632 1177.54 178.726C1174.11 187.408 1174.22 201.3 1177.65 210.116C1186.34 232.424 1206.24 242.041 1223.17 232.023V232.023Z" fill="white"/>
<path d="M817.646 194.354V130.905L851.153 131.172L884.546 131.573L884.889 143.328L885.232 154.949H861.674H838.23V168.975V183H859.387H880.544V194.354V205.708H859.387H838.23V219.734V233.76L861.446 234.027L884.546 234.427L884.889 246.182L885.232 257.803H851.382H817.646V194.354V194.354Z" fill="white"/>
<path d="M919.426 206.376V154.949H905.131H890.836V142.927V130.905L929.49 131.172L968.029 131.573L968.372 143.328L968.715 154.949H954.306H940.011V206.376V257.803H929.719H919.426V206.376V206.376Z" fill="white"/>
<path d="M1010.91 194.354V130.905H1021.21H1031.5V194.354V257.803H1021.21H1010.91V194.354Z" fill="white"/>
<path d="M1069.24 206.376V154.949H1054.94H1040.65V142.927V130.905H1079.53H1118.41V142.927V154.949H1104.12H1089.82V206.376V257.803H1079.53H1069.24V206.376Z" fill="white"/>
<path d="M1276.23 194.354V130.905H1287.67H1298.99L1302.88 137.851C1304.93 141.725 1314.31 159.09 1323.69 176.455L1340.84 207.979L1341.19 169.509L1341.41 130.905H1351.71H1362V194.354V257.803H1351.36H1340.73L1328.61 235.496C1321.97 223.073 1312.25 205.04 1306.99 195.156L1297.39 177.39L1297.04 217.597L1296.81 257.803H1286.52H1276.23V194.354V194.354Z" fill="white"/>
<path d="M166.022 336.347L166.365 155.617L169.224 149.606C171.74 144.397 172.655 143.595 176.2 143.194C180.317 142.794 181.804 144.53 262.313 237.233C338.134 324.725 344.195 332.072 344.195 336.213C344.195 340.488 343.966 340.621 339.735 340.621C337.219 340.621 334.703 339.82 333.903 338.617C333.102 337.549 331.844 336.614 331.158 336.614C330.358 336.614 294.563 377.221 251.564 426.778C179.745 509.596 172.998 516.943 169.567 516.943H165.793L166.022 336.347Z" fill="#00DAFF"/>
<path d="M420.588 435.861C387.766 397.525 385.365 394.319 385.365 390.045C385.365 385.637 387.766 382.564 420.588 344.228C451.122 308.563 456.154 303.22 459.127 303.22C463.015 303.22 546.269 357.318 553.817 364.665C560.564 371.344 563.195 378.29 563.195 390.045C563.195 401.933 560.679 408.612 553.588 415.691C546.384 422.905 464.388 476.068 459.699 476.602C455.811 477.003 454.553 475.667 420.588 435.861Z" fill="#FFCC00"/>
<path d="M170.825 633.823C166.137 625.407 165.908 622.469 165.793 564.897C165.793 518.279 166.022 509.062 167.394 507.726C168.767 506.39 169.11 506.791 169.453 509.73C169.796 512.935 176.315 505.722 235.553 437.464C271.691 395.655 307.829 354.112 315.834 344.896L330.243 328.199L334.818 332.339C341.336 338.484 342.022 337.549 336.19 330.603C330.586 323.924 331.844 322.455 338.363 328.466C340.65 330.469 343.052 332.473 343.852 332.74C344.538 333.007 355.517 345.163 368.211 359.723C387.08 381.496 390.968 386.572 389.825 388.175C388.91 389.51 388.796 390.445 389.825 391.915C391.197 393.785 394.857 389.377 234.295 575.449C183.748 633.823 180.66 637.162 176.772 637.162C173.684 637.162 172.312 636.361 170.825 633.823Z" fill="#00C8FF"/>
<path d="M180.66 643.707C176.086 641.436 173.799 638.364 173.799 634.09C173.799 630.75 174.027 630.349 175.514 631.819C177.344 633.555 170.825 640.902 335.961 449.62C377.245 401.799 387.423 389.377 386.394 387.907C385.365 386.438 385.708 386.037 388.224 386.037C390.968 386.037 391.197 386.304 389.825 388.175C388.567 389.911 393.141 395.788 423.675 431.453C445.061 456.432 459.47 472.328 460.499 471.927C461.529 471.527 461.986 472.328 461.986 474.332C461.872 477.137 447.691 486.888 340.65 557.016C273.978 600.695 216.455 638.231 212.91 640.368C207.192 643.841 205.019 644.375 194.955 644.776C188.666 644.909 182.261 644.509 180.66 643.707Z" fill="#FF3A44"/>
<path d="M282.441 268.623C180.889 151.209 176.886 146.801 174.828 149.072C172.77 151.209 172.655 151.209 172.655 146.801C172.655 143.061 173.456 141.725 177.001 138.92C180.66 136.115 182.719 135.581 192.096 135.18C201.245 134.913 203.875 135.313 209.022 137.851C212.452 139.588 270.662 177.257 338.477 221.738C446.547 292.534 461.872 302.952 461.986 305.624C461.986 307.628 461.414 308.563 460.614 308.162C459.813 307.761 443.117 326.195 423.561 348.903L387.881 390.445L282.441 268.623Z" fill="#00F076"/>
</svg>
